<svg width="20" height="20" viewBox="0 0 20 20" fill="none" xmlns="http://www.w3.org/2000/svg">
<g clip-path="url(#clip0_382_390)">
<path d="M5.2711 10.652H7.46341V19.6774C7.46341 19.8556 7.60778 20 7.78599 20H11.5031C11.6813 20 11.8257 19.8556 11.8257 19.6774V10.6945H14.346C14.5099 10.6945 14.6477 10.5716 14.6665 10.4088L15.0492 7.08609C15.0597 6.99469 15.0308 6.90313 14.9696 6.83453C14.9084 6.7659 14.8208 6.7266 14.7288 6.7266H11.8259V4.64375C11.8259 4.0159 12.1639 3.6975 12.8308 3.6975C12.9258 3.6975 14.7288 3.6975 14.7288 3.6975C14.907 3.6975 15.0514 3.55305 15.0514 3.37492V0.324961C15.0514 0.146758 14.907 0.00238281 14.7288 0.00238281H12.113C12.0946 0.00148437 12.0536 0 11.9932 0C11.5393 0 9.96173 0.0891015 8.71552 1.23555C7.33474 2.50602 7.52669 4.02715 7.57255 4.2909V6.72652H5.27106C5.09286 6.72652 4.94849 6.8709 4.94849 7.0491V10.3294C4.94853 10.5075 5.0929 10.652 5.2711 10.652Z" fill="#385C8E"/>
</g>
<defs>
<clipPath id="clip0_382_390">
<rect width="20" height="20" fill="white"/>
</clipPath>
</defs>
</svg>
