<svg width="36" height="36" viewBox="0 0 36 36" fill="none" xmlns="http://www.w3.org/2000/svg">
<path d="M5.8286 23.6452L4.08279 27.6H0.947449L8.64329 10.1775H11.7786L19.4388 27.6H16.3035L14.5577 23.6452H5.8286ZM13.3819 20.9017L10.211 13.7404L7.03999 20.9017H13.3819Z" fill="#34A5F8"/>
<path d="M33.0384 14.3462V25.8898C33.0384 28.1702 32.4209 29.9159 31.1857 31.1273C29.9505 32.3387 28.2998 32.9444 26.2333 32.9444C24.2856 32.9444 22.4804 32.315 20.8177 31.056L22.136 28.9539C23.4661 29.9278 24.7844 30.4148 26.0909 30.4148C28.9411 30.4148 30.3662 28.9895 30.3662 26.1393V24.429C29.9624 25.2129 29.3687 25.8424 28.5848 26.3174C27.801 26.7687 26.934 26.9944 25.9839 26.9944C24.2262 26.9944 22.7773 26.3886 21.6372 25.1772C20.5208 23.9422 19.9626 22.4102 19.9626 20.5811C19.9626 18.7284 20.5208 17.1964 21.6372 15.985C22.7773 14.7498 24.2262 14.1323 25.9839 14.1323C27.7416 14.1323 29.1668 14.8568 30.2594 16.3056V14.3462H33.0384ZM26.4471 24.4647C27.5635 24.4647 28.4779 24.0846 29.1905 23.3246C29.9031 22.5407 30.2594 21.5788 30.2594 20.4387C30.2594 19.2748 29.8913 18.3128 29.1549 17.5527C28.4423 16.7688 27.5279 16.3769 26.4115 16.3769C25.2951 16.3769 24.3925 16.7807 23.7037 17.5883C23.0385 18.3722 22.706 19.3223 22.706 20.4387C22.706 21.5788 23.0504 22.5407 23.7393 23.3246C24.4281 24.0846 25.3308 24.4647 26.4471 24.4647Z" fill="black"/>
</svg>
