<svg width="48" height="48" viewBox="0 0 300 300" fill="none" xmlns="http://www.w3.org/2000/svg">
<path d="M48.5728 197.043L34.0244 230H7.89648L72.0285 84.8125H98.1563L161.991 230H135.864L121.315 197.043H48.5728ZM111.517 174.181L85.0924 114.503L58.6677 174.181H111.517Z" fill="#34A5F8"/>
<path d="M275.32 119.551V215.748C275.32 234.751 270.174 249.299 259.881 259.394C249.588 269.489 235.832 274.536 218.611 274.536C202.38 274.536 187.337 269.291 173.481 258.8L184.467 241.282C195.551 249.398 206.537 253.456 217.424 253.456C241.176 253.456 253.052 241.579 253.052 217.827V203.575C249.687 210.107 244.739 215.353 238.207 219.311C231.675 223.072 224.45 224.953 216.533 224.953C201.885 224.953 189.811 219.905 180.31 209.81C171.007 199.518 166.355 186.751 166.355 171.509C166.355 156.07 171.007 143.303 180.31 133.208C189.811 122.915 201.885 117.769 216.533 117.769C231.18 117.769 243.057 123.806 252.162 135.88V119.551H275.32ZM220.393 203.872C229.696 203.872 237.316 200.705 243.254 194.371C249.193 187.839 252.162 179.823 252.162 170.322C252.162 160.623 249.094 152.606 242.958 146.272C237.019 139.74 229.399 136.474 220.096 136.474C210.793 136.474 203.271 139.839 197.531 146.569C191.988 153.101 189.217 161.019 189.217 170.322C189.217 179.823 192.087 187.839 197.828 194.371C203.568 200.705 211.09 203.872 220.393 203.872Z" fill="white"/>
</svg>
