<?xml version="1.0" encoding="UTF-8" standalone="no"?>
<!DOCTYPE svg PUBLIC "-//W3C//DTD SVG 1.1//EN"
 "http://www.w3.org/Graphics/SVG/1.1/DTD/svg11.dtd">
<!-- Generated by graphviz version 2.47.3 (20210619.1520)
 -->
<!-- Title: dependencies Pages: 1 -->
<svg width="214pt" height="247pt"
 viewBox="0.00 0.00 214.00 246.80" xmlns="http://www.w3.org/2000/svg" xmlns:xlink="http://www.w3.org/1999/xlink">
<g id="graph0" class="graph" transform="scale(1 1) rotate(0) translate(4 242.8)">
<title>dependencies</title>
<polygon fill="white" stroke="transparent" points="-4,4 -4,-242.8 210,-242.8 210,4 -4,4"/>
<text text-anchor="middle" x="103" y="-8.2" font-family="sans-serif" font-size="14.00">dependencies</text>
<g id="clust1" class="cluster">
<title>cluster_ButtonGroupModule</title>
<polygon fill="none" stroke="black" stroke-dasharray="1,5" points="8,-32.8 8,-230.8 198,-230.8 198,-32.8 8,-32.8"/>
</g>
<g id="clust5" class="cluster">
<title>cluster_ButtonGroupModule_exports</title>
<polygon fill="none" stroke="black" points="16,-170.8 16,-222.8 190,-222.8 190,-170.8 16,-170.8"/>
</g>
<g id="clust2" class="cluster">
<title>cluster_ButtonGroupModule_declarations</title>
<polygon fill="none" stroke="black" points="17,-40.8 17,-92.8 189,-92.8 189,-40.8 17,-40.8"/>
</g>
<!-- ButtonGroupComponent -->
<g id="node1" class="node">
<title>ButtonGroupComponent</title>
<polygon fill="#ffffb3" stroke="black" points="180.72,-84.8 25.28,-84.8 25.28,-48.8 180.72,-48.8 180.72,-84.8"/>
<text text-anchor="middle" x="103" y="-62.6" font-family="Times,serif" font-size="14.00">ButtonGroupComponent</text>
</g>
<!-- ButtonGroupModule -->
<g id="node2" class="node">
<title>ButtonGroupModule</title>
<polygon fill="#8dd3c7" stroke="black" points="169.94,-149.8 166.94,-153.8 145.94,-153.8 142.94,-149.8 36.06,-149.8 36.06,-113.8 169.94,-113.8 169.94,-149.8"/>
<text text-anchor="middle" x="103" y="-127.6" font-family="Times,serif" font-size="14.00">ButtonGroupModule</text>
</g>
<!-- ButtonGroupComponent&#45;&gt;ButtonGroupModule -->
<g id="edge1" class="edge">
<title>ButtonGroupComponent&#45;&gt;ButtonGroupModule</title>
<path fill="none" stroke="black" d="M103,-84.91C103,-84.91 103,-103.79 103,-103.79"/>
<polygon fill="black" stroke="black" points="99.5,-103.79 103,-113.79 106.5,-103.79 99.5,-103.79"/>
</g>
<!-- ButtonGroupComponent  -->
<g id="node3" class="node">
<title>ButtonGroupComponent </title>
<polygon fill="#fb8072" stroke="black" points="182.22,-214.8 23.78,-214.8 23.78,-178.8 182.22,-178.8 182.22,-214.8"/>
<text text-anchor="middle" x="103" y="-192.6" font-family="Times,serif" font-size="14.00">ButtonGroupComponent </text>
</g>
<!-- ButtonGroupModule&#45;&gt;ButtonGroupComponent  -->
<g id="edge2" class="edge">
<title>ButtonGroupModule&#45;&gt;ButtonGroupComponent </title>
<path fill="none" stroke="black" stroke-dasharray="5,2" d="M103,-149.91C103,-149.91 103,-168.79 103,-168.79"/>
<polygon fill="black" stroke="black" points="99.5,-168.79 103,-178.79 106.5,-168.79 99.5,-168.79"/>
</g>
</g>
</svg>
