<svg width="20" height="20" viewBox="0 0 20 20" fill="none" xmlns="http://www.w3.org/2000/svg">
<g clip-path="url(#clip0_382_394)">
<path d="M20 10.2216C20 9.40171 19.9319 8.80342 19.7846 8.18298H10.2041V11.8834H15.8276C15.7143 12.8031 15.1021 14.188 13.7415 15.1186L13.7224 15.2425L16.7516 17.5357L16.9615 17.5561C18.8889 15.8166 20 13.2573 20 10.2216Z" fill="#4285F4"/>
<path d="M10.2041 19.9714C12.9591 19.9714 15.272 19.085 16.9614 17.5561L13.7414 15.1186C12.8798 15.7058 11.7233 16.1157 10.2041 16.1157C7.50566 16.1157 5.21542 14.3763 4.39902 11.9721L4.27935 11.982L1.12957 14.3641L1.08838 14.476C2.76637 17.7333 6.21309 19.9714 10.2041 19.9714Z" fill="#34A853"/>
<path d="M4.39905 11.9721C4.18363 11.3517 4.05897 10.6869 4.05897 10C4.05897 9.31305 4.18363 8.64831 4.38772 8.02788L4.38201 7.89574L1.19276 5.4754L1.08841 5.5239C0.39683 6.8756 0 8.39351 0 10C0 11.6065 0.39683 13.1243 1.08841 14.476L4.39905 11.9721Z" fill="#FBBC05"/>
<path d="M10.2041 3.88416C12.1201 3.88416 13.4126 4.69295 14.1496 5.36884L17.0294 2.62114C15.2608 1.01463 12.9591 0.0285645 10.2041 0.0285645C6.21309 0.0285645 2.76637 2.26658 1.08838 5.52389L4.38769 8.02786C5.21542 5.62364 7.50566 3.88416 10.2041 3.88416Z" fill="#EB4335"/>
</g>
<defs>
<clipPath id="clip0_382_394">
<rect width="20" height="20" fill="white"/>
</clipPath>
</defs>
</svg>
