<?xml version="1.0" encoding="UTF-8" standalone="no"?> <!-- Created with Vectornator for iOS (http://vectornator.io/) --><!DOCTYPE svg PUBLIC "-//W3C//DTD SVG 1.1//EN" "http://www.w3.org/Graphics/SVG/1.1/DTD/svg11.dtd">
<svg style="fill-rule:evenodd;clip-rule:evenodd;stroke-linecap:round;stroke-linejoin:round;" xmlns:vectornator="http://vectornator.io" xmlns:xlink="http://www.w3.org/1999/xlink" xmlns="http://www.w3.org/2000/svg" xml:space="preserve" version="1.1" viewBox="0 0 2160 1000">
<metadata>
<vectornator:setting key="DimensionsVisible" value="1"/>
<vectornator:setting key="Units" value="Pixels"/>
<vectornator:setting key="SnapToPoints" value="0"/>
<vectornator:setting key="GuidesVisible" value="1"/>
<vectornator:setting key="RulersVisible" value="1"/>
<vectornator:setting key="CMYKEnabledKey" value="0"/>
<vectornator:setting key="SnapToEdges" value="0"/>
<vectornator:setting key="DisplayWhiteBackground" value="0"/>
<vectornator:setting key="SnapToGuides" value="1"/>
<vectornator:setting key="GridSpacing" value="36"/>
<vectornator:setting key="SnapToGrid" value="0"/>
<vectornator:setting key="DynamicGuides" value="0"/>
<vectornator:setting key="New" value="1"/>
</metadata>
<defs/>
<g id="Layer 2p" vectornator:layerName="Layer 2p">
<path stroke="#000000" stroke-width="1" d="M2158.79+627.675L2047.47+623.104" fill="none" stroke-linecap="round" opacity="1" stroke-linejoin="round"/>
<path stroke="#000000" stroke-width="1" d="M1975.92+619.86L1825.33+614.012L1611.08+699.67L2157.34+731.014" fill="none" stroke-linecap="round" opacity="1" stroke-linejoin="round"/>
<path stroke="#000000" stroke-width="1" d="M1612.21+775.987L1611.09+699.448" fill="none" stroke-linecap="round" opacity="1" stroke-linejoin="round"/>
<path stroke="#000000" stroke-width="1" d="M1459.36+839.896L1459.62+768.902" fill="none" stroke-linecap="round" opacity="1" stroke-linejoin="round"/>
<path stroke="#000000" stroke-width="1" d="M1325.45+832.069L1391.36+836.078L1459.27+840.208" fill="none" stroke-linecap="round" opacity="1" stroke-linejoin="round"/>
<path stroke="#000000" stroke-width="1" d="M1459.33+792.96L1325.62+832.011" fill="none" stroke-linecap="round" opacity="1" stroke-linejoin="round"/>
<path stroke="#000000" stroke-width="1" d="M1326.09+895.887L1325.44+832.041" fill="none" stroke-linecap="round" opacity="1" stroke-linejoin="round"/>
<path stroke="#000000" stroke-width="1" d="M1191.83+918.085L1191.71+887.858" fill="none" stroke-linecap="round" opacity="1" stroke-linejoin="round"/>
<path stroke="#000000" stroke-width="1" d="M1191.71+887.858L1191.7+885.776L1326.03+895.859" fill="none" stroke-linecap="round" opacity="1" stroke-linejoin="round"/>
<path stroke="#000000" stroke-width="1" d="M1325.65+854.552L1191.77+885.778" fill="none" stroke-linecap="round" opacity="1" stroke-linejoin="round"/>
<path stroke="#000000" stroke-width="1" d="M1995.9+1000.44" fill="none" stroke-linecap="round" opacity="1" stroke-linejoin="round"/>
<path stroke="#000000" stroke-width="1" d="M1172.93+948.101L987.797+936.202" fill="none" stroke-linecap="round" opacity="1" stroke-linejoin="round"/>
<path stroke="#000000" stroke-width="1" d="M1975.28+999.435L1212.49+950.561" fill="none" stroke-linecap="round" opacity="1" stroke-linejoin="round"/>
<path stroke="#000000" stroke-width="1" d="M988.138+936.168C988.138+936.168+847.77+923.253+761.605+961.272C728.157+976.03+676.568+999.377+676.568+999.377" fill="none" stroke-linecap="round" opacity="1" stroke-linejoin="round"/>
<path stroke="#000000" stroke-width="1" d="M2159.49+999.451L202.145+999.494" fill="none" stroke-linecap="round" opacity="1" stroke-linejoin="round"/>
</g>
<g id="Layer 3" vectornator:layerName="Layer 3">
<path stroke="#000000" stroke-width="1" d="M2159.46+175.538C2159.46+175.538+2003.74+215.843+1928.34+309.126C1875.15+374.933+1832.16+417.413+1735+455.809C1643.54+491.956+1604.26+569.963+1576.31+614.68C1549.68+657.301+1492.36+678.792+1450.39+691.274C1408.41+703.757+1371.55+744.658+1344.32+768.362C1315.35+793.58+1244.62+799.54+1204.63+800.172L559.11+804.508" fill="none" stroke-linecap="round" opacity="1" stroke-linejoin="round"/>
</g>
<g id="Layer 2" vectornator:layerName="Layer 2">
<path stroke="#000000" stroke-width="1" d="M1459.63+768.208" fill="none" stroke-linecap="round" opacity="1" stroke-linejoin="round"/>
<path stroke="#000000" stroke-width="1" d="M1613.66+712.24" fill="none" stroke-linecap="round" opacity="1" stroke-linejoin="round"/>
<path stroke="#000000" stroke-width="1" d="M1460.01+769.122L1610.67+715.725" fill="none" stroke-linecap="round" opacity="1" stroke-linejoin="round"/>
<path stroke="#000000" stroke-width="1" d="M1612.55+775.957L1459.49+769.281" fill="none" stroke-linecap="round" opacity="1" stroke-linejoin="round"/>
</g>
<g id="Plants and mopuntain strokes" vectornator:layerName="Plants and mopuntain strokes">
<path stroke="#000000" stroke-width="1" d="M2049.13+999.268C2049.13+999.268+2032.88+926.283+1942.68+893.897C1879.49+871.212+1836.26+872.953+1836.26+872.953" fill="none" stroke-linecap="round" opacity="1" stroke-linejoin="round"/>
<path stroke="#000000" stroke-width="1" d="M2029.35+958.241C2029.35+958.241+2001.65+914.443+2053.96+866.455" fill="none" stroke-linecap="round" opacity="1" stroke-linejoin="round"/>
<path stroke="#000000" stroke-width="1" d="M2026.85+954.467C2026.85+954.467+2011.45+944.566+1990.26+952.421C1971.51+959.374+1967.27+961.47+1967.27+961.47" fill="none" stroke-linecap="round" opacity="1" stroke-linejoin="round"/>
<path stroke="#000000" stroke-width="1" d="M1997.44+950.363C1997.44+950.363+1974.23+946.369+1968.06+940.847" fill="none" stroke-linecap="round" opacity="1" stroke-linejoin="round"/>
<path stroke="#000000" stroke-width="1" d="M1964.02+931.925L1964.02+931.925C1966.99+931.925+1969.4+934.334+1969.4+937.305L1969.4+937.661C1969.4+940.632+1966.99+943.041+1964.02+943.041L1964.02+943.041C1962.56+943.041+1961.23+942.454+1960.26+941.502C1959.26+940.525+1958.64+939.165+1958.64+937.661L1958.64+937.305C1958.64+935.976+1959.13+934.76+1959.92+933.821C1960.91+932.661+1962.38+931.925+1964.02+931.925Z" fill="#1087db" stroke-linecap="round" opacity="1" stroke-linejoin="round"/>
<path stroke="#000000" stroke-width="1" d="M1894.44+928.617L1894.44+928.617C1897.41+928.617+1899.82+931.025+1899.82+933.996L1899.82+934.353C1899.82+937.324+1897.41+939.732+1894.44+939.732L1894.44+939.732C1892.97+939.732+1891.64+939.145+1890.67+938.193C1889.68+937.217+1889.06+935.857+1889.06+934.353L1889.06+933.996C1889.06+932.668+1889.54+931.451+1890.34+930.513C1891.33+929.353+1892.8+928.617+1894.44+928.617Z" fill="#1087db" stroke-linecap="round" opacity="1" stroke-linejoin="round"/>
<path stroke="#000000" stroke-width="1" d="M1849.87+889.927L1849.87+889.927C1852.84+889.927+1855.25+892.335+1855.25+895.307L1855.25+895.663C1855.25+898.634+1852.84+901.043+1849.87+901.043L1849.87+901.043C1848.4+901.043+1847.07+900.455+1846.1+899.503C1845.1+898.527+1844.49+897.167+1844.49+895.663L1844.49+895.307C1844.49+893.978+1844.97+892.762+1845.77+891.823C1846.75+890.663+1848.22+889.927+1849.87+889.927Z" fill="#1087db" stroke-linecap="round" opacity="1" stroke-linejoin="round"/>
<path stroke="#000000" stroke-width="1" d="M1918.53+847.061L1918.53+847.061C1921.5+847.061+1923.91+849.469+1923.91+852.44L1923.91+852.797C1923.91+855.271+1922.24+857.355+1919.96+857.983C1919.51+858.109+1919.03+858.176+1918.53+858.176L1918.53+858.176C1917.06+858.176+1915.73+857.589+1914.76+856.637C1913.77+855.661+1913.15+854.301+1913.15+852.797L1913.15+852.44C1913.15+851.111+1913.63+849.895+1914.43+848.957C1915.42+847.797+1916.89+847.061+1918.53+847.061Z" fill="#1087db" stroke-linecap="round" opacity="1" stroke-linejoin="round"/>
<path stroke="#000000" stroke-width="1" d="M1865.35+847.169L1865.35+847.169C1868.32+847.169+1870.73+849.578+1870.73+852.549L1870.73+852.905C1870.73+855.379+1869.06+857.463+1866.79+858.091C1866.33+858.217+1865.85+858.285+1865.35+858.285L1865.35+858.285C1863.88+858.285+1862.55+857.698+1861.58+856.746C1860.59+855.769+1859.97+854.409+1859.97+852.905L1859.97+852.549C1859.97+851.22+1860.45+850.004+1861.25+849.065C1862.24+847.905+1863.71+847.169+1865.35+847.169Z" fill="#1087db" stroke-linecap="round" opacity="1" stroke-linejoin="round"/>
<path stroke="#000000" stroke-width="1" d="M2009.43+853.923L2009.43+853.923C2012.4+853.923+2014.81+856.331+2014.81+859.302L2014.81+859.659C2014.81+862.63+2012.4+865.038+2009.43+865.038L2009.43+865.038C2007.96+865.038+2006.63+864.451+2005.66+863.499C2004.67+862.523+2004.05+861.163+2004.05+859.659L2004.05+859.302C2004.05+857.973+2004.53+856.757+2005.33+855.819C2006.31+854.659+2007.78+853.923+2009.43+853.923Z" fill="#1087db" stroke-linecap="round" opacity="1" stroke-linejoin="round"/>
<path stroke="#000000" stroke-width="1" d="M1961.39+957.642L1961.39+957.642C1964.36+957.642+1966.77+960.051+1966.77+963.022L1966.77+963.378C1966.77+966.349+1964.36+968.758+1961.39+968.758L1961.39+968.758C1958.41+968.758+1956.01+966.349+1956.01+963.378L1956.01+963.022C1956.01+960.051+1958.41+957.642+1961.39+957.642Z" fill="#1087db" stroke-linecap="round" opacity="1" stroke-linejoin="round"/>
<path stroke="#000000" stroke-width="1" d="M2057.74+857.108L2057.74+857.108C2060.72+857.108+2063.12+859.517+2063.12+862.488L2063.12+862.844C2063.12+865.815+2060.72+868.224+2057.74+868.224L2057.74+868.224C2054.77+868.224+2052.37+865.815+2052.37+862.844L2052.37+862.488C2052.37+859.517+2054.77+857.108+2057.74+857.108Z" fill="#1087db" stroke-linecap="round" opacity="1" stroke-linejoin="round"/>
<path stroke="#000000" stroke-width="1" d="M2009.17+865.063C2009.17+865.063+2006.98+904.574+2012.29+923.466C2014.25+930.431+2026.52+954.226+2026.52+954.226" fill="none" stroke-linecap="round" opacity="1" stroke-linejoin="round"/>
<path stroke="#000000" stroke-width="1" d="M1979.87+883.138C1979.87+883.138+1998.16+902.63+2007.49+916.104C2009.51+919.022+2012.04+923.404+2012.94+925.499" fill="none" stroke-linecap="round" opacity="1" stroke-linejoin="round"/>
<path stroke="#000000" stroke-width="1" d="M1979.84+911.662C1979.84+911.662+1926.59+901.337+1898.5+929.881" fill="none" stroke-linecap="round" opacity="1" stroke-linejoin="round"/>
<path stroke="#000000" stroke-width="1" d="M1961.51+901.551C1961.51+901.551+1956.39+883.298+1942.85+875.362C1929.3+867.427+1923.51+859.676+1921.83+857.747" fill="none" stroke-linecap="round" opacity="1" stroke-linejoin="round"/>
<path stroke="#000000" stroke-width="1" d="M1897.86+880.782C1897.86+880.782+1892.68+872.091+1882.83+869.071C1872.77+865.989+1869.68+860.234+1868.23+858.25" fill="none" stroke-linecap="round" opacity="1" stroke-linejoin="round"/>
<path stroke="#000000" stroke-width="1" d="M1897.57+880.755C1897.57+880.755+1882.09+879.514+1872.61+887.17C1863.12+894.825+1857.36+894.586+1855.85+894.899" fill="none" stroke-linecap="round" opacity="1" stroke-linejoin="round"/>
<path stroke="#000000" stroke-width="1" d="M1666.56+496.869C1666.56+496.869+1580.31+515.258+1529.23+567.419C1479.26+618.437+1428.23+627.003+1403.04+635.268C1403.04+635.268+1314.3+658.459+1281.41+690.411C1237.22+733.361+1173.25+755.366+1146.32+762.905C1118.16+770.788+1040.32+777.525+998.558+801.176" fill="none" stroke-linecap="round" opacity="1" stroke-linejoin="round"/>
<path stroke="#000000" stroke-width="1" d="M1295.06+679.579C1239.69+686.104+1199.59+715.277+1162.4+724.739C1130.04+732.974+1081.6+729.5+1030.52+752.7C987.263+772.344+939.878+773.357+901.507+778.687C870.377+783.01+811.583+802.036+811.583+802.036" fill="none" stroke-linecap="round" opacity="1" stroke-linejoin="round"/>
<path stroke="#000000" stroke-width="1" d="M1644.3+240.862C1628.69+232.656+1600.4+219.794+1551.43+234.619C1486.82+254.178+1455.58+266.316+1387.55+245.499C1335.52+229.579+1291+251.929+1278.05+257.827" fill="none" stroke-linecap="round" opacity="1" stroke-linejoin="round"/>
<path stroke="#000000" stroke-width="1" d="M1247.63+431.156C1238.04+426.115+1220.66+418.213+1190.58+427.321C1150.89+439.336+1131.7+446.793+1089.9+434.004C1057.94+424.224+1030.59+437.955+1022.64+441.578" fill="none" stroke-linecap="round" opacity="1" stroke-linejoin="round"/>
<path stroke="#000000" stroke-width="1" d="M1547.02+270.019C1482.41+289.578+1451.17+301.716+1383.13+280.899" fill="none" stroke-linecap="round" opacity="1" stroke-linejoin="round"/>
<path stroke="#000000" stroke-width="1" d="M1187.87+449.068C1148.18+461.083+1128.99+468.54+1087.19+455.752" fill="none" stroke-linecap="round" opacity="1" stroke-linejoin="round"/>
<path stroke="#000000" stroke-width="1" d="M2160.36+38.0352C2160.36+38.0352+2145.78+35.912+2089.87+59.1956C2030.09+84.0911+1955.98+128.88+1897.09+218.897" fill="none" stroke-linecap="round" opacity="1" stroke-linejoin="round"/>
<path stroke="#000000" stroke-width="1" d="M1944.72+158.445C1944.72+158.445+1935+158.676+1926.03+160.699C1916.43+162.864+1910.81+164.629+1901.19+170.725" fill="none" stroke-linecap="round" opacity="1" stroke-linejoin="round"/>
<path stroke="#000000" stroke-width="1" d="M1935.85+168.166C1935.85+168.166+1927.01+169.071+1918.97+171.712C1910.37+174.538+1905.38+176.689+1897.05+183.437" fill="none" stroke-linecap="round" opacity="1" stroke-linejoin="round"/>
<path stroke="#000000" stroke-width="1" d="M1944.91+158.368C1944.91+158.368+1946.85+168.242+1947.54+176.576C1948.28+185.493+1947.78+194.23+1945.92+202.706" fill="none" stroke-linecap="round" opacity="1" stroke-linejoin="round"/>
<path stroke="#000000" stroke-width="1" d="M1927.78+177.344C1927.78+177.344+1919.07+179.428+1911.78+183.132C1903.98+187.096+1901.22+189.12+1894.88+195.17" fill="none" stroke-linecap="round" opacity="1" stroke-linejoin="round"/>
<path stroke="#000000" stroke-width="1" d="M1915.13+193.411C1915.13+193.411+1910.07+194.768+1905.85+197.212C1901.33+199.827+1899.73+201.168+1896.07+205.181" fill="none" stroke-linecap="round" opacity="1" stroke-linejoin="round"/>
<path stroke="#000000" stroke-width="1" d="M1909.35+213.768C1909.35+213.768+1915.81+201.795+1915.47+192.999" fill="none" stroke-linecap="round" opacity="1" stroke-linejoin="round"/>
<path stroke="#000000" stroke-width="1" d="M1919.3+210.152C1919.3+210.152+1925.51+195.912+1926.32+184.24C1926.44+182.474+1926.44+180.767+1926.27+179.176" fill="none" stroke-linecap="round" opacity="1" stroke-linejoin="round"/>
<path stroke="#000000" stroke-width="1" d="M1932.79+207.368C1932.79+207.368+1935.11+200.259+1936.27+192.481C1937.51+184.158+1937.28+176.02+1936.05+167.799" fill="none" stroke-linecap="round" opacity="1" stroke-linejoin="round"/>
<path stroke="#000000" stroke-width="1" d="M1956.45+146.414C1956.45+146.414+1945.49+147.58+1936.44+149.237C1933.12+149.846+1929.86+150.59+1926.66+151.473C1920.55+153.162+1914.67+155.36+1909.07+158.089" fill="none" stroke-linecap="round" opacity="1" stroke-linejoin="round"/>
<path stroke="#000000" stroke-width="1" d="M1955.35+147.843C1955.35+147.843+1957.3+158.843+1957.91+168.021C1958.57+177.843+1957.98+187.443+1956.05+196.735" fill="none" stroke-linecap="round" opacity="1" stroke-linejoin="round"/>
<path stroke="#000000" stroke-width="1" d="M1965.05+138.247C1965.05+138.247+1967.51+149.145+1968.55+158.285C1969.66+168.066+1969.52+177.683+1968.01+187.055" fill="none" stroke-linecap="round" opacity="1" stroke-linejoin="round"/>
<path stroke="#000000" stroke-width="1" d="M1974.73+129.791C1974.73+129.791+1977.19+140.689+1978.23+149.829C1979.34+159.609+1979.2+169.227+1977.69+178.598" fill="none" stroke-linecap="round" opacity="1" stroke-linejoin="round"/>
<path stroke="#000000" stroke-width="1" d="M1984.23+121.523C1984.23+121.523+1991.67+151.918+1986.24+170.149" fill="none" stroke-linecap="round" opacity="1" stroke-linejoin="round"/>
<path stroke="#000000" stroke-width="1" d="M1994.36+114.075C1994.36+114.075+2001.15+147.238+1997.32+162.882" fill="none" stroke-linecap="round" opacity="1" stroke-linejoin="round"/>
<path stroke="#000000" stroke-width="1" d="M2006.69+104.863C2006.69+104.863+2013.09+135.27+2008.02+155.946" fill="none" stroke-linecap="round" opacity="1" stroke-linejoin="round"/>
<path stroke="#000000" stroke-width="1" d="M2022.86+94.199C2022.86+94.199+2027.28+130.668+2022.46+147.771" fill="none" stroke-linecap="round" opacity="1" stroke-linejoin="round"/>
<path stroke="#000000" stroke-width="1" d="M2158.44+38.1403C2158.44+38.1403+2155.43+36.8099+2150.12+34.946C2135.21+29.7104+2102.18+20.2651+2066.81+24.2697" fill="none" stroke-linecap="round" opacity="1" stroke-linejoin="round"/>
<path stroke="#000000" stroke-width="1" d="M2123.87+46.85C2123.87+46.85+2068.66+33.7999+2025.63+42.9541" fill="none" stroke-linecap="round" opacity="1" stroke-linejoin="round"/>
<path stroke="#000000" stroke-width="1" d="M2088.24+59.6494C2088.24+59.6494+2036.25+49.2483+1997.41+61.4376" fill="none" stroke-linecap="round" opacity="1" stroke-linejoin="round"/>
<path stroke="#000000" stroke-width="1" d="M2060.5+72.6354C2060.5+72.6354+1998.16+70.4664+1974.07+80.3289" fill="none" stroke-linecap="round" opacity="1" stroke-linejoin="round"/>
<path stroke="#000000" stroke-width="1" d="M2039.73+83.7188C2039.73+83.7188+1978.9+84.8845+1954.43+95.6486" fill="none" stroke-linecap="round" opacity="1" stroke-linejoin="round"/>
<path stroke="#000000" stroke-width="1" d="M2025.03+92.5294C2025.03+92.5294+1967.86+95.3948+1943.38+106.159" fill="none" stroke-linecap="round" opacity="1" stroke-linejoin="round"/>
<path stroke="#000000" stroke-width="1" d="M2006.75+104.805C2006.75+104.805+1959.12+105.044+1934.64+115.808" fill="none" stroke-linecap="round" opacity="1" stroke-linejoin="round"/>
<path stroke="#000000" stroke-width="1" d="M1994.24+114.215C1994.24+114.215+1953.79+113.446+1929.32+124.21" fill="none" stroke-linecap="round" opacity="1" stroke-linejoin="round"/>
<path stroke="#000000" stroke-width="1" d="M1984.45+121.802C1984.45+121.802+1946.03+124+1922.78+134.459" fill="none" stroke-linecap="round" opacity="1" stroke-linejoin="round"/>
<path stroke="#000000" stroke-width="1" d="M1969.89+133.769C1969.89+133.769+1931.79+136.247+1914.94+144.374" fill="none" stroke-linecap="round" opacity="1" stroke-linejoin="round"/>
<path stroke="#000000" stroke-width="1" d="M2139.16+42.1476C2139.16+42.1476+2138.17+82.2697+2123.37+104.808" fill="none" stroke-linecap="round" opacity="1" stroke-linejoin="round"/>
<path stroke="#000000" stroke-width="1" d="M2154.4+38.2587C2154.4+38.2587+2159.29+75.3135+2140.7+101.75" fill="none" stroke-linecap="round" opacity="1" stroke-linejoin="round"/>
<path stroke="#000000" stroke-width="1" d="M2106.39+52.7003C2106.39+52.7003+2100.43+93.75+2089.28+118.906" fill="none" stroke-linecap="round" opacity="1" stroke-linejoin="round"/>
<path stroke="#000000" stroke-width="1" d="M2124.01+46.697C2124.01+46.697+2118.92+86.0225+2107.73+110.206" fill="none" stroke-linecap="round" opacity="1" stroke-linejoin="round"/>
<path stroke="#000000" stroke-width="1" d="M2083.11+62.0597C2083.11+62.0597+2075.8+108.68+2070.62+126.204" fill="none" stroke-linecap="round" opacity="1" stroke-linejoin="round"/>
<path stroke="#000000" stroke-width="1" d="M2060.06+73.1121C2060.06+73.1121+2063.22+107.507+2055.12+131.354" fill="none" stroke-linecap="round" opacity="1" stroke-linejoin="round"/>
<path stroke="#000000" stroke-width="1" d="M2042.22+82.4164C2042.22+82.4164+2044.86+123.261+2038.65+140.645" fill="none" stroke-linecap="round" opacity="1" stroke-linejoin="round"/>
<path stroke="#000000" stroke-width="1" d="M1439.14+798.801L1195.53+800.222" fill="none" stroke-linecap="round" opacity="1" stroke-linejoin="round"/>
<path stroke="#000000" stroke-width="1" d="M633.536+999.456C633.536+999.456+663.888+998.829+740.474+959.657C817.061+920.486+871.454+889.642+917.701+875.313C981.612+855.511+1059.82+854.195+1119.18+836.799C1178.55+819.403+1283.44+806.665+1335.84+799.42" fill="none" stroke-linecap="round" opacity="1" stroke-linejoin="round"/>
<path d="M1851.17+568.868L1854.14+577.246L1868.83+570.015L1867.18+558.957L1851.17+568.868Z" opacity="1" fill="#5d3d0e"/>
<g opacity="1">
<path stroke="#000000" stroke-width="1" d="M1318.15+999.519C1318.15+999.519+1307.4+952.893+1350.56+909.32C1380.8+878.797+1406.24+867.884+1406.24+867.884" fill="none" stroke-linecap="round" opacity="1" stroke-linejoin="round"/>
<path stroke="#000000" stroke-width="1" d="M1320.65+959.715C1320.65+959.715+1326.28+937.116+1295.17+924.51" fill="none" stroke-linecap="round" opacity="1" stroke-linejoin="round"/>
<path stroke="#000000" stroke-width="1" d="M1317.41+994.357C1317.41+994.357+1323.55+984.395+1337.91+983.088C1350.62+981.932+1353.63+981.974+1353.63+981.974" fill="none" stroke-linecap="round" opacity="1" stroke-linejoin="round"/>
<path stroke="#000000" stroke-width="1" d="M1333.15+983.878C1333.15+983.878+1345.45+975.172+1347.49+970.283" fill="none" stroke-linecap="round" opacity="1" stroke-linejoin="round"/>
<path stroke="#000000" stroke-width="1" d="M1347.36+964.018L1347.36+964.018C1345.64+964.837+1344.92+966.892+1345.74+968.608L1345.83+968.813C1346.65+970.529+1348.71+971.256+1350.42+970.437L1350.42+970.437C1351.27+970.032+1351.88+969.327+1352.17+968.509C1352.48+967.671+1352.46+966.715+1352.05+965.847L1351.95+965.641C1351.58+964.874+1350.97+964.304+1350.25+963.982C1349.36+963.584+1348.31+963.565+1347.36+964.018Z" fill="#1087db" stroke-linecap="round" opacity="1" stroke-linejoin="round"/>
<path stroke="#000000" stroke-width="1" d="M1387.98+916.07L1387.98+916.07C1386.26+916.889+1385.53+918.944+1386.35+920.66L1386.45+920.865C1387.27+922.581+1389.32+923.308+1391.04+922.489L1391.04+922.489C1391.89+922.084+1392.49+921.378+1392.79+920.561C1393.1+919.723+1393.08+918.767+1392.66+917.899L1392.56+917.693C1392.2+916.926+1391.58+916.356+1390.87+916.034C1389.98+915.636+1388.92+915.617+1387.98+916.07Z" fill="#1087db" stroke-linecap="round" opacity="1" stroke-linejoin="round"/>
<path stroke="#000000" stroke-width="1" d="M1403.05+881.438L1403.05+881.438C1401.33+882.257+1400.6+884.312+1401.42+886.027L1401.52+886.233C1402.34+887.949+1404.4+888.676+1406.11+887.856L1406.11+887.856C1406.96+887.452+1407.57+886.746+1407.86+885.929C1408.17+885.091+1408.15+884.135+1407.74+883.267L1407.64+883.061C1407.27+882.294+1406.66+881.724+1405.94+881.402C1405.05+881.004+1404+880.985+1403.05+881.438Z" fill="#1087db" stroke-linecap="round" opacity="1" stroke-linejoin="round"/>
<path stroke="#000000" stroke-width="1" d="M1351.58+875.616L1351.58+875.616C1349.86+876.435+1349.13+878.49+1349.95+880.206L1350.05+880.411C1350.73+881.84+1352.27+882.583+1353.76+882.319C1354.06+882.266+1354.36+882.172+1354.64+882.035L1354.64+882.035C1355.49+881.63+1356.1+880.925+1356.39+880.107C1356.7+879.269+1356.68+878.313+1356.27+877.445L1356.17+877.239C1355.8+876.472+1355.19+875.902+1354.47+875.58C1353.58+875.183+1352.53+875.163+1351.58+875.616Z" fill="#1087db" stroke-linecap="round" opacity="1" stroke-linejoin="round"/>
<path stroke="#000000" stroke-width="1" d="M1382.32+861.016L1382.32+861.016C1380.6+861.835+1379.87+863.89+1380.69+865.606L1380.79+865.811C1381.47+867.24+1383.01+867.983+1384.5+867.719C1384.8+867.665+1385.09+867.572+1385.38+867.435L1385.38+867.435C1386.23+867.03+1386.83+866.325+1387.13+865.507C1387.44+864.669+1387.42+863.713+1387+862.845L1386.91+862.639C1386.54+861.872+1385.93+861.302+1385.21+860.98C1384.32+860.582+1383.26+860.563+1382.32+861.016Z" fill="#1087db" stroke-linecap="round" opacity="1" stroke-linejoin="round"/>
<path stroke="#000000" stroke-width="1" d="M1313.45+907.015L1313.45+907.015C1311.65+907.64+1310.7+909.601+1311.33+911.397L1311.4+911.613C1312.03+913.409+1313.99+914.358+1315.78+913.734L1315.78+913.734C1316.67+913.426+1317.35+912.792+1317.74+912.012C1318.13+911.213+1318.22+910.261+1317.91+909.352L1317.83+909.137C1317.55+908.334+1317+907.7+1316.33+907.3C1315.49+906.806+1314.44+906.67+1313.45+907.015Z" fill="#1087db" stroke-linecap="round" opacity="1" stroke-linejoin="round"/>
<path stroke="#000000" stroke-width="1" d="M1355.97+978.141L1355.97+978.141C1354.26+978.961+1353.53+981.016+1354.35+982.731L1354.45+982.937C1355.27+984.653+1357.32+985.379+1359.04+984.56L1359.04+984.56C1360.75+983.741+1361.48+981.686+1360.66+979.97L1360.56+979.765C1359.74+978.049+1357.69+977.322+1355.97+978.141Z" fill="#1087db" stroke-linecap="round" opacity="1" stroke-linejoin="round"/>
<path stroke="#000000" stroke-width="1" d="M1290.23+919.122L1290.23+919.122C1288.51+919.941+1287.79+921.996+1288.61+923.712L1288.7+923.918C1289.52+925.634+1291.58+926.36+1293.29+925.541L1293.29+925.541C1295.01+924.722+1295.74+922.667+1294.92+920.951L1294.82+920.745C1294+919.03+1291.95+918.303+1290.23+919.122Z" fill="#1087db" stroke-linecap="round" opacity="1" stroke-linejoin="round"/>
<path stroke="#000000" stroke-width="1" d="M1315.97+913.644C1315.97+913.644+1322.45+930.945+1322.96+940.204C1323.15+943.618+1321.52+956.147+1321.52+956.147" fill="none" stroke-linecap="round" opacity="1" stroke-linejoin="round"/>
<path stroke="#000000" stroke-width="1" d="M1355.97+936.906C1355.97+936.906+1339.58+941.816+1330.09+946.275C1328.03+947.241+1325.23+948.853+1324.05+949.722" fill="none" stroke-linecap="round" opacity="1" stroke-linejoin="round"/>
<path stroke="#000000" stroke-width="1" d="M1333.99+929.824C1333.99+929.824+1361.89+909.182+1385.98+917.919" fill="none" stroke-linecap="round" opacity="1" stroke-linejoin="round"/>
<path stroke="#000000" stroke-width="1" d="M1341.78+918.934C1341.78+918.934+1339.7+906.981+1345.34+898.664C1350.97+890.347+1352.18+884.275+1352.62+882.698" fill="none" stroke-linecap="round" opacity="1" stroke-linejoin="round"/>
<path stroke="#000000" stroke-width="1" d="M1372.81+889.389C1372.81+889.389+1373.41+882.943+1378.26+878.483C1383.22+873.93+1383.42+869.754+1383.71+868.209" fill="none" stroke-linecap="round" opacity="1" stroke-linejoin="round"/>
<path stroke="#000000" stroke-width="1" d="M1372.97+889.295C1372.97+889.295+1381.57+884.311+1389.16+886.115C1396.75+887.92+1400+886.194+1400.97+885.958" fill="none" stroke-linecap="round" opacity="1" stroke-linejoin="round"/>
</g>
<path stroke="#000000" stroke-width="1" d="M1985.36+615.375C1988.88+601.829+2001.19+591.829+2015.84+591.829C2033.23+591.829+2047.33+605.927+2047.33+623.319C2047.33+640.71+2033.23+654.809+2015.84+654.809C2013.54+654.809+2011.29+654.561+2009.13+654.091C2007.14+653.66+2005.97+653.32+2004.15+652.534" fill="none" stroke-linecap="round" opacity="1" stroke-linejoin="round"/>
<path stroke="#000000" stroke-width="1" d="M1965.73+635.542C1967.16+624.849+1976.31+616.599+1987.4+616.599C1999.47+616.599+2009.25+626.384+2009.25+638.454C2009.25+650.524+1999.47+660.309+1987.4+660.309C1985.8+660.309+1984.24+660.137+1982.73+659.81C1972.9+657.675+1965.54+648.924+1965.54+638.454C1965.54+637.467+1965.61+636.495+1965.73+635.542" fill="none" stroke-linecap="round" opacity="1" stroke-linejoin="round"/>
</g>
<g id="face" vectornator:layerName="face">
<path d="M1820.97+524.744C1819.37+529.467+1820.01+538.361+1823.51+543.899C1823.51+543.899+1826.33+547.869+1825.76+551.569L1827.95+551.426C1827.95+551.426+1827.61+552.084+1827.93+552.93C1828.22+553.708+1828.41+553.667+1829.04+554.091C1829.04+554.091+1828.79+555.162+1828.23+556.705C1827.67+558.247+1825.94+561.935+1827.92+562.583C1827.92+562.583+1829.25+562.43+1829.83+562.366C1830.57+562.509+1830.64+562.84+1830.4+563.935C1830.17+565.031+1829.83+566.201+1829.83+566.201C1829.83+566.201+1829.75+568.05+1832.07+567.996L1833.7+567.823L1832.56+569.383C1832.56+569.383+1831.92+571.304+1833.68+571.407C1833.68+571.407+1836.34+571.819+1836.17+573.04C1836+574.26+1836.47+576.656+1838.72+576.988C1844.8+577.885+1851.14+571.519+1851.14+571.519L1863.81+559.727L1846.29+518.774C1846.29+518.774+1822.57+520.022+1820.97+524.744Z" opacity="1" fill="#654412"/>
</g>
<g id="Layer 1" vectornator:layerName="Layer 1">
<path d="M1819.95+585.497L1814.5+582.984C1814.5+582.984+1807.12+580.441+1805.97+579.963C1804.82+579.485+1800.88+584.246+1799.63+585.325C1798.38+586.404+1799.09+588.871+1801.84+586.906C1804.87+584.728+1806.13+583.608+1806.13+583.608L1817.75+589.394L1819.95+585.497Z" opacity="1" fill="#492f09"/>
<path d="M1819.93+587.593L1815.04+588.322C1815.04+588.322+1808.76+589.819+1807.75+590.003C1806.74+590.186+1805.86+594.576+1805.41+595.715C1804.95+596.853+1806.38+598.151+1807.65+595.925C1808.93+593.651+1809.34+592.076+1809.34+592.076L1819.93+590.772L1819.93+587.593Z" opacity="1" fill="#2b1b03"/>
<path d="M1820+588.315L1814.65+587.093C1814.65+587.093+1807.53+586.153+1806.41+585.939C1805.29+585.724+1802.56+590.281+1801.63+591.37C1800.69+592.458+1801.63+594.511+1803.86+592.54C1806.13+590.525+1807.2+588.926+1807.2+588.926L1818.7+591.884L1820+588.315Z" opacity="1" fill="#362104"/>
<path d="M1819.92+585.15L1814.47+582.637C1814.47+582.637+1807.08+580.094+1805.93+579.616C1804.79+579.139+1800.84+583.899+1799.59+584.978C1798.34+586.057+1799.21+588.194+1801.82+586.063C1804.29+584.048+1806.38+582.092+1806.38+582.092L1818.54+587.761L1819.92+585.15Z" opacity="1" fill="#654412"/>
</g>
<g id="Index finger" vectornator:layerName="Index finger">
<path d="M1813.95+583.197L1809.68+579.479C1809.68+579.479+1800.55+579.886+1798.79+579.81C1797.04+579.733+1796.49+577.462+1798.95+577.077C1801.42+576.692+1811.16+575.832+1811.74+575.772C1812.32+575.713+1817.8+580.24+1819.1+581.27C1820.11+582.063+1821.01+582.832+1823.08+584.584C1823.58+585.004+1823.81+585.671+1824.14+586.221L1827.04+598.429L1817.29+591.55L1813.95+583.197Z" opacity="1" fill="#492f09"/>
<path d="M1824.03+588.006L1851.74+631.889L1857.06+656.241L1846.61+657.252L1817.33+594.382L1824.03+588.006Z" opacity="1" fill="#492f09"/>
<path d="M1824.56+588.566L1852.27+632.449L1867.48+653.486L1852.44+657L1828.21+611.61L1818.47+593.361L1824.56+588.566Z" opacity="1" fill="#654412"/>
</g>
<g id="thumb" vectornator:layerName="thumb">
<path d="M1821.32+589.213C1821.32+589.213+1820.38+588.655+1817.05+587.512C1813.6+586.327+1812.05+583.614+1809.63+582.429C1808.48+581.863+1806.37+581.687+1806.57+583.707C1806.77+585.727+1807.71+589.383+1812.14+590.462C1815.72+591.338+1817.55+594.9+1817.91+595.618" opacity="1" fill="#492f09"/>
<path d="M1822.3+589.644C1822.3+589.644+1818.64+588.988+1815.97+587.761C1812.4+586.116+1811.76+583.628+1809.4+582.491C1808.27+581.949+1806.57+581.603+1806.76+583.546C1806.95+585.49+1807.87+589.007+1812.2+590.039C1815.71+590.877+1818.63+593.618+1818.98+594.309" opacity="1" fill="#654412"/>
</g>
<g id="Layer 6" vectornator:layerName="Layer 6">
<path d="M1754.75+684.106C1754.75+684.106+1750.8+686.249+1750.98+690.026C1751.17+693.803+1761.31+695.903+1766.83+695.872C1772.35+695.841+1783.75+693.936+1783.75+693.936L1754.75+684.106Z" opacity="1" fill="#000000"/>
<path d="M1898.37+660.562C1898.37+660.562+1906.08+680.197+1895.94+692.96C1889.74+700.759+1862.52+706.695+1832.97+702.712C1804.76+698.91+1758.81+691.165+1749.53+681.434C1740.25+671.703+1744.26+654.361+1758.95+654.06C1773.64+653.759+1853.65+659.425+1853.65+659.425L1898.37+660.562Z" opacity="1" fill="#02538c"/>
<path d="M1858.56+644.838L1826.97+645.298L1812.2+660.738L1858.59+662.968L1858.56+644.838Z" opacity="1" fill="#045e9d"/>
<path d="M1898.82+655.153C1898.82+655.153+1905.15+675.964+1895.07+688.184C1888.91+695.652+1861.88+701.335+1832.53+697.522C1804.52+693.882+1758.88+686.466+1749.66+677.149C1740.44+667.831+1744.9+654.04+1759.49+653.752C1774.08+653.464+1834.81+662.114+1834.81+662.114L1898.82+655.153Z" opacity="1" fill="#1087db"/>
<path stroke="#000000" stroke-width="1" d="M1171.62+937.054C1173.05+926.36+1182.2+918.111+1193.29+918.111C1205.36+918.111+1215.14+927.895+1215.14+939.965C1215.14+952.035+1205.36+961.82+1193.29+961.82C1191.69+961.82+1190.13+961.648+1188.63+961.322C1178.8+959.186+1171.43+950.436+1171.43+939.965C1171.43+938.978+1171.5+938.006+1171.62+937.054" fill="none" stroke-linecap="round" opacity="1" stroke-linejoin="round"/>
</g>
<g id="Layer 5" vectornator:layerName="Layer 5">
<path d="M1814.64+582.78L1809.75+578.729C1809.75+578.729+1800.43+579.468+1798.67+579.436C1796.92+579.404+1796.54+577.54+1798.99+577.092C1801.45+576.643+1810.86+575.792+1811.44+575.718C1812.02+575.644+1817.75+579.925+1819.08+580.921C1820.1+581.688+1823+583.419+1824.65+587.02C1826.29+590.622+1830.18+597.655+1830.18+597.655L1818.15+590.942L1814.64+582.78Z" opacity="1" fill="#654412"/>
<path stroke="#492f09" stroke-width="1" d="M1816.18+587.339C1816.18+587.339+1818.6+588.408+1819.43+588.815" fill="#492f09" stroke-linecap="round" opacity="1" stroke-linejoin="round"/>
</g>
<g id="Layer 4" vectornator:layerName="Layer 4">
<path d="M1763.47+656.758L1795.2+639.452L1845.24+640.134L1813.98+661.731L1763.47+656.758Z" opacity="1" fill="#4d4d4d"/>
<path d="M1777.16+588.562L1742.59+595.25L1760.91+656.844L1763.53+656.812L1776.69+590.938L1779.62+591.719L1780.19+588.911L1777.17+588.565L1777.16+588.562Z" opacity="1" fill="#4d4d4d"/>
<path d="M1745.7+595.562L1780.23+588.909L1795.42+640.675L1763.53+656.753L1745.7+595.562Z" opacity="1" fill="#000000"/>
<path d="M1814.93+640.382C1814.93+640.382+1814.11+637.603+1813.56+635.513C1813.01+633.424+1813.88+630.488+1813.87+629.123C1813.85+627.759+1811.99+627.262+1811.13+628.971C1810.27+630.68+1809.31+633.971+1810.22+636.882C1811.12+639.793+1814.93+640.382+1814.93+640.382Z" opacity="1" fill="#654412"/>
<path d="M1760.8+656.483L1813.98+661.679L1813.96+664.051L1760.88+657.894L1760.8+656.483Z" opacity="1" fill="#6e6e6e"/>
<path d="M1813.94+648.988L1812.42+651.314L1810.52+652.041C1810.52+652.041+1806.18+652.934+1800.34+648.299C1794.51+643.664+1793.56+643.5+1793.56+643.5L1790.58+644.117L1788.87+648.662C1788.87+648.662+1786.62+650.476+1786.73+647.969C1786.83+645.775+1787.12+643.44+1787.66+641.58C1787.74+641.313+1787.82+641.055+1787.91+640.81C1788.63+638.852+1788.49+638.467+1790.89+638.5C1793.29+638.533+1804.1+643.628+1804.1+643.628L1813.94+648.988Z" opacity="1" fill="#654412"/>
<path d="M1829.03+648.153C1829.03+648.153+1807.84+635.149+1806.55+634.185C1805.26+633.221+1806.17+632.333+1800.32+632.447C1793.34+632.582+1791.45+634.463+1791.45+634.463C1791.45+634.463+1788.46+638.143+1788.9+639.314C1789.51+640.925+1807.14+646.042+1807.14+646.042L1829.03+648.153Z" opacity="1" fill="#895f22"/>
<path d="M1827.23+647.656L1821.37+657.083L1817.47+654.899L1814.74+653.521C1814.74+653.521+1806.95+654.109+1800.48+650.422C1794+646.736+1794.54+646.771+1794.54+646.771L1791.96+648.141L1791.81+652.705C1791.81+652.705+1789.19+653.983+1788.92+651.488C1788.64+648.992+1788.51+646.077+1788.92+644.033C1789.32+641.989+1789.13+641.63+1791.5+641.294C1793.88+640.959+1805.35+644.337+1805.35+644.337L1827.23+647.656Z" opacity="1" fill="#895f22"/>
<path d="M1813.9+661.699L1845.18+640.167L1845.19+641.107L1813.96+664.041L1813.9+661.699Z" opacity="1" fill="#6e6e6e"/>
<path d="M1845.48+651.869C1845.16+653.804+1829.12+656.417+1829.19+665.769C1829.24+670.907+1833.27+665.15+1835.06+670.647C1836.85+676.144+1834.41+680.672+1842.45+680.626C1850.49+680.579+1858.68+673.801+1860.9+677.222C1863.11+680.643+1859.48+683.664+1864.87+682.698C1870.25+681.732+1868.62+677.41+1873.01+677.951C1877.4+678.492+1876.65+683.529+1881.29+683.05C1885.94+682.571+1884.21+679.974+1888.67+678.896C1893.13+677.819+1893.03+676.559+1895.71+678.635C1898.39+680.711+1900.1+681.312+1901.28+679.398C1902.47+677.484+1902.86+677.184+1902.77+674.131C1902.68+671.078+1901.34+671.758+1900.5+666.752C1899.65+661.745+1845.8+649.933+1845.48+651.869Z" opacity="1" fill="#34a5f8"/>
</g>
<g id="Layer 7ppava" vectornator:layerName="Layer 7ppava">
<path d="M1899.87+590.478C1899.87+590.478+1904.15+634.43+1901.72+648.632C1899.3+662.833+1900.59+666.774+1900.83+670.719C1900.83+670.719+1852.22+668.712+1846.71+668.434C1841.2+668.156+1844.26+618.994+1846.87+594.586C1849.49+570.178+1867.89+564.796+1867.89+564.796L1899.87+590.478Z" opacity="1" fill="#34a5f8"/>
<path d="M1876.28+613.309L1869.63+664.881C1869.63+664.881+1866.15+680.221+1857.55+677.3C1848.94+674.379+1818.15+655.266+1818.15+655.266L1824.6+646.181L1853.21+656.216L1852.43+617.881L1876.28+613.309Z" opacity="1" fill="#654412"/>
<path d="M1811.61+450.744L1811.61+450.744C1816.02+450.744+1819.59+454.318+1819.59+458.727L1819.59+459.256C1819.59+462.927+1817.11+466.02+1813.74+466.952C1813.06+467.139+1812.35+467.239+1811.61+467.239L1811.61+467.239C1809.43+467.239+1807.46+466.368+1806.02+464.955C1804.54+463.506+1803.63+461.488+1803.63+459.256L1803.63+458.727C1803.63+456.755+1804.34+454.95+1805.53+453.557C1806.99+451.836+1809.17+450.744+1811.61+450.744Z" opacity="1" fill="#f6f254"/>
<path stroke="#000000" stroke-width="1" d="M1816.99+447.431C1816.99+447.431+1811.72+441.644+1805.67+447.528" fill="none" stroke-linecap="round" opacity="0.202698" stroke-linejoin="round"/>
<path stroke="#000000" stroke-width="1" d="M1817.61+470.528C1817.61+470.528+1812.52+476.474+1806.29+470.78" fill="none" stroke-linecap="round" opacity="0.202698" stroke-linejoin="round"/>
<path stroke="#000000" stroke-width="1" d="M1817.7+477.097C1817.7+477.097+1812.62+483.043+1806.39+477.349" fill="none" stroke-linecap="round" opacity="0.202698" stroke-linejoin="round"/>
<path stroke="#000000" stroke-width="1" d="M1816.7+440.405C1816.7+440.405+1811.26+434.787+1805.39+440.858" fill="none" stroke-linecap="round" opacity="0.202698" stroke-linejoin="round"/>
<path stroke="#ffffff" stroke-width="1" d="M1877.17+592.345L1876.13+613.072" fill="none" stroke-linecap="round" opacity="0.7" stroke-linejoin="round"/>
<path stroke="#ffffff" stroke-width="1" d="M1853.01+594.456L1852.66+614.919" fill="none" stroke-linecap="round" opacity="0.7" stroke-linejoin="round"/>
<path stroke="#ffffff" stroke-width="1" d="M1875.94+610.004L1852.65+614.794" fill="none" stroke-linecap="round" opacity="0.7" stroke-linejoin="round"/>
<path d="M1873.85+613.661L1867.92+665.281C1867.92+665.281+1865.43+678.067+1856.82+675.146C1854.16+674.241+1849.3+671.914+1843.87+669.132C1834.53+664.351+1823.49+658.229+1818.94+655.686C1817.6+654.935+1816.82+654.496+1816.82+654.496L1824.94+645.783L1853.54+656.779L1852.74+617.833L1873.85+613.661Z" opacity="1" fill="#895f22"/>
</g>
<g id="hair" vectornator:layerName="hair">
<path d="M1925.98+596.201C1925.98+596.201+1896.31+607.173+1882.21+584.004C1882.21+584.004+1879.92+569.986+1866.85+567.187C1866.85+567.187+1857.02+566.262+1854.2+563.384C1854.2+563.384+1845.48+555.014+1849.62+550.066C1853.79+545.088+1853.08+539.467+1850.4+537.388C1847.71+535.31+1843.93+535.66+1841.46+540.78C1841.46+540.78+1832.36+530.071+1820.3+534.811C1820.3+534.811+1817.61+514.028+1835.08+505.379C1845.19+500.379+1862.18+502.115+1868.62+513.674C1874.89+524.935+1871.64+531.407+1871.64+531.407C1871.64+531.407+1900.02+535.969+1902.38+562.566C1902.38+562.566+1902.19+582.064+1909.22+588.512C1915.97+594.694+1919.96+596.442+1925.98+596.201Z" opacity="1" fill="#000000"/>
<path stroke="#000000" stroke-width="1" d="M1823.31+644.781C1823.42+641.762+1820.16+639.522+1816.87+640.118C1810.22+641.319+1804.93+654.792+1817.47+654.5" fill="none" stroke-linecap="round" opacity="1" stroke-linejoin="round"/>
<path d="M1813.2+653.352L1817.82+655.118L1819.37+653.212L1815.32+650.421L1813.2+653.352Z" opacity="1" fill="#895f22"/>
<path d="M1821.15+644.986L1823.21+646.091L1824.05+645.118L1822.63+644.227L1821.15+644.986Z" opacity="1" fill="#895f22"/>
<path stroke="#48361b" stroke-width="2" d="M1871.32+531.176C1871.32+531.176+1864.81+529.668+1864.03+537.741" fill="none" stroke-linecap="round" opacity="1" stroke-linejoin="round"/>
</g>
</svg>
