<svg width="100" height="100" viewBox="0 0 100 100" fill="none" xmlns="http://www.w3.org/2000/svg">
<path d="M94 22.5H7V26.5H94V22.5Z" fill="#E9E9E9"/>
<path d="M94 47.5H7V51.5H94V47.5Z" fill="#E9E9E9"/>
<path d="M94 72.5H7V76.5H94V72.5Z" fill="#E9E9E9"/>
<path d="M32.5 33C36.9183 33 40.5 29.4183 40.5 25C40.5 20.5817 36.9183 17 32.5 17C28.0817 17 24.5 20.5817 24.5 25C24.5 29.4183 28.0817 33 32.5 33Z" fill="white" stroke="#E9E9E9" stroke-width="2"/>
<path d="M68.5 58C72.9183 58 76.5 54.4183 76.5 50C76.5 45.5817 72.9183 42 68.5 42C64.0817 42 60.5 45.5817 60.5 50C60.5 54.4183 64.0817 58 68.5 58Z" fill="white" stroke="#E9E9E9" stroke-width="2"/>
<path d="M51.5 83C55.9183 83 59.5 79.4183 59.5 75C59.5 70.5817 55.9183 67 51.5 67C47.0817 67 43.5 70.5817 43.5 75C43.5 79.4183 47.0817 83 51.5 83Z" fill="white" stroke="#E9E9E9" stroke-width="2"/>
</svg>
