<svg width="100" height="100" viewBox="0 0 100 100" fill="none" xmlns="http://www.w3.org/2000/svg">
<path d="M94.5 24H31.5V33H94.5V24Z" stroke="#D8D8D8"/>
<path d="M94.5 46H31.5V55H94.5V46Z" stroke="#D8D8D8"/>
<path d="M94.5 68H31.5V77H94.5V68Z" stroke="#D8D8D8"/>
<path d="M10 33C12.4853 33 14.5 30.9853 14.5 28.5C14.5 26.0147 12.4853 24 10 24C7.51472 24 5.5 26.0147 5.5 28.5C5.5 30.9853 7.51472 33 10 33Z" stroke="#D8D8D8"/>
<path d="M10 55.5C12.7614 55.5 15 53.2614 15 50.5C15 47.7386 12.7614 45.5 10 45.5C7.23858 45.5 5 47.7386 5 50.5C5 53.2614 7.23858 55.5 10 55.5Z" fill="#CCCCCC"/>
<path d="M10 77C12.4853 77 14.5 74.9853 14.5 72.5C14.5 70.0147 12.4853 68 10 68C7.51472 68 5.5 70.0147 5.5 72.5C5.5 74.9853 7.51472 77 10 77Z" stroke="#D8D8D8"/>
</svg>
