<svg width="100" height="100" viewBox="0 0 100 100" fill="none" xmlns="http://www.w3.org/2000/svg">
<path d="M30 10H6V89H30V10Z" stroke="#E9E9E9"/>
<path d="M94 10H79V89H94V10Z" stroke="#E9E9E9"/>
<path d="M46.7769 66.5005H47.7114V64.8892H48.8071V64.0405H47.7114V58.75H46.2827C46.0571 59.1009 45.8298 59.4518 45.6006 59.8027C45.375 60.1537 45.1494 60.5046 44.9238 60.8555C44.6983 61.2064 44.4709 61.5573 44.2417 61.9082C44.0161 62.2591 43.7887 62.61 43.5596 62.9609C43.334 63.3119 43.1084 63.6628 42.8828 64.0137V64.8892H46.7769V66.5005ZM43.8389 64.0405V64.0191C44.0322 63.7219 44.2256 63.4264 44.419 63.1328C44.6123 62.8356 44.8057 62.5384 44.999 62.2412C45.196 61.944 45.3911 61.6486 45.5845 61.355C45.7778 61.0578 45.9712 60.7624 46.1646 60.4688C46.3579 60.1716 46.5513 59.8744 46.7446 59.5772H46.7769V64.0405H43.8389ZM52.4111 66.6294C52.959 66.6294 53.4442 66.5345 53.8667 66.3447C54.2928 66.155 54.6258 65.8936 54.8657 65.5606C55.1056 65.224 55.2256 64.839 55.2256 64.4058V64.395C55.2256 64.0763 55.1558 63.7809 55.0161 63.5088C54.8765 63.2367 54.6813 63.0057 54.4307 62.8159C54.1836 62.6226 53.8936 62.4883 53.5606 62.4131V62.3916C53.9867 62.2591 54.3233 62.0407 54.5703 61.7363C54.821 61.432 54.9463 61.0757 54.9463 60.6675V60.6567C54.9463 60.2665 54.8371 59.9191 54.6187 59.6148C54.4002 59.3068 54.0995 59.0651 53.7163 58.8897C53.3368 58.7106 52.9017 58.6211 52.4111 58.6211C51.9242 58.6211 51.4891 58.7106 51.106 58.8897C50.7228 59.0651 50.422 59.3068 50.2036 59.6148C49.9852 59.9191 49.876 60.2665 49.876 60.6567V60.6675C49.876 61.0757 50.0013 61.432 50.252 61.7363C50.5026 62.0407 50.8392 62.2591 51.2617 62.3916V62.4131C50.9323 62.4883 50.6423 62.6226 50.3916 62.8159C50.141 63.0057 49.9458 63.2367 49.8062 63.5088C49.6665 63.7809 49.5967 64.0763 49.5967 64.395V64.4058C49.5967 64.839 49.7166 65.224 49.9566 65.5606C50.2 65.8936 50.5331 66.155 50.9556 66.3447C51.3781 66.5345 51.8633 66.6294 52.4111 66.6294ZM52.4111 65.7861C52.0567 65.7861 51.7415 65.7253 51.4658 65.6035C51.1901 65.4782 50.9735 65.3081 50.8159 65.0933C50.6584 64.8748 50.5796 64.626 50.5796 64.3467V64.3359C50.5796 64.0531 50.6566 63.8024 50.8106 63.584C50.9681 63.3656 51.1847 63.1937 51.4605 63.0684C51.7362 62.943 52.0531 62.8804 52.4111 62.8804C52.7692 62.8804 53.0861 62.943 53.3618 63.0684C53.6375 63.1937 53.8524 63.3656 54.0064 63.584C54.1639 63.8024 54.2427 64.0531 54.2427 64.3359V64.3467C54.2427 64.626 54.1639 64.8748 54.0064 65.0933C53.8488 65.3081 53.6322 65.4782 53.3565 65.6035C53.0843 65.7253 52.7692 65.7861 52.4111 65.7861ZM52.4111 62.0317C52.0996 62.0317 51.8257 61.978 51.5894 61.8706C51.353 61.7596 51.1686 61.6074 51.0361 61.4141C50.9037 61.2207 50.8374 60.9987 50.8374 60.7481V60.7373C50.8374 60.4867 50.9037 60.2647 51.0361 60.0713C51.1686 59.8779 51.353 59.7276 51.5894 59.6201C51.8257 59.5091 52.0996 59.4536 52.4111 59.4536C52.7227 59.4536 52.9966 59.5091 53.2329 59.6201C53.4693 59.7276 53.6537 59.8779 53.7861 60.0713C53.9186 60.2647 53.9849 60.4867 53.9849 60.7373V60.7481C53.9849 60.9987 53.9186 61.2207 53.7861 61.4141C53.6537 61.6074 53.4693 61.7596 53.2329 61.8706C52.9966 61.978 52.7227 62.0317 52.4111 62.0317ZM56.3159 68.3804H57.2505V65.5659H57.272C57.3901 65.7808 57.537 65.967 57.7124 66.1245C57.8915 66.2785 58.0956 66.3984 58.3247 66.4844C58.5539 66.5667 58.7992 66.6079 59.0606 66.6079C59.5296 66.6079 59.9396 66.4898 60.2905 66.2534C60.645 66.0135 60.9207 65.6769 61.1177 65.2437C61.3182 64.8104 61.4185 64.3001 61.4185 63.7129V63.7075C61.4185 63.1203 61.32 62.61 61.1231 62.1768C60.9261 61.7399 60.6486 61.4033 60.2905 61.167C59.936 60.9271 59.5207 60.8071 59.0444 60.8071C58.7795 60.8071 58.5342 60.8501 58.3086 60.936C58.083 61.022 57.8825 61.1437 57.707 61.3013C57.5352 61.4553 57.3901 61.6415 57.272 61.8599H57.2505V60.9146H56.3159V68.3804ZM58.8618 65.7808C58.5467 65.7808 58.2674 65.6948 58.0239 65.523C57.784 65.3511 57.5943 65.1112 57.4546 64.8032C57.315 64.4917 57.2451 64.1283 57.2451 63.7129V63.7075C57.2451 63.2886 57.3132 62.9251 57.4492 62.6172C57.5889 62.3057 57.7804 62.064 58.0239 61.8921C58.2674 61.7202 58.5467 61.6343 58.8618 61.6343C59.1913 61.6343 59.4759 61.7184 59.7158 61.8867C59.9557 62.0514 60.1401 62.2896 60.2691 62.6011C60.398 62.909 60.4624 63.2778 60.4624 63.7075V63.7129C60.4624 64.1354 60.398 64.5025 60.2691 64.814C60.1401 65.1219 59.9557 65.36 59.7158 65.5283C59.4759 65.6966 59.1913 65.7808 58.8618 65.7808ZM61.5527 66.5005H62.5894L63.9375 64.3735H63.959L65.2964 66.5005H66.333L64.4746 63.6699L66.3599 60.9146H65.3179L63.9912 63.0093H63.9697L62.627 60.9146H61.585L63.4541 63.7075L61.5527 66.5005Z" fill="#D8D8D8"/>
<path d="M78.3536 49.3539C78.5488 49.1586 78.5488 48.842 78.3536 48.6467L75.1716 45.4648C74.9763 45.2695 74.6597 45.2695 74.4645 45.4648C74.2692 45.66 74.2692 45.9766 74.4645 46.1719L77.2929 49.0003L74.4645 51.8287C74.2692 52.024 74.2692 52.3406 74.4645 52.5358C74.6597 52.7311 74.9763 52.7311 75.1716 52.5358L78.3536 49.3539ZM30.6464 48.6467C30.4512 48.842 30.4512 49.1586 30.6464 49.3539L33.8284 52.5358C34.0237 52.7311 34.3403 52.7311 34.5355 52.5358C34.7308 52.3406 34.7308 52.024 34.5355 51.8287L31.7071 49.0003L34.5355 46.1719C34.7308 45.9766 34.7308 45.66 34.5355 45.4648C34.3403 45.2695 34.0237 45.2695 33.8284 45.4648L30.6464 48.6467ZM78 48.5003H31V49.5003H78V48.5003Z" fill="#E9E9E9"/>
</svg>
