<svg width="100" height="100" viewBox="0 0 100 100" fill="none" xmlns="http://www.w3.org/2000/svg">
<path d="M50.5 33C52.9853 33 55 30.9853 55 28.5C55 26.0147 52.9853 24 50.5 24C48.0147 24 46 26.0147 46 28.5C46 30.9853 48.0147 33 50.5 33Z" stroke="#D8D8D8"/>
<path d="M50.5 77C52.9853 77 55 74.9853 55 72.5C55 70.0147 52.9853 68 50.5 68C48.0147 68 46 70.0147 46 72.5C46 74.9853 48.0147 77 50.5 77Z" stroke="#D8D8D8"/>
<path d="M50.5 32.5V67.5" stroke="#D8D8D8" stroke-width="2"/>
<path d="M50.5 55C52.9853 55 55 52.9853 55 50.5C55 48.0147 52.9853 46 50.5 46C48.0147 46 46 48.0147 46 50.5C46 52.9853 48.0147 55 50.5 55Z" fill="#D8D8D8" stroke="#CCCCCC"/>
</svg>
