<svg width="100" height="100" viewBox="0 0 100 100" fill="none" xmlns="http://www.w3.org/2000/svg">
<path d="M90.5 11H8.5C7.11929 11 6 12.1193 6 13.5V87.5C6 88.8807 7.11929 90 8.5 90H90.5C91.8807 90 93 88.8807 93 87.5V13.5C93 12.1193 91.8807 11 90.5 11Z" stroke="#D8D8D8"/>
<path d="M6 13.5C6 12.1193 7.11929 11 8.5 11H35V26H6V13.5Z" fill="#CCCCCC" stroke="#D8D8D8"/>
<path d="M35 11.5C35 11.2239 35.2239 11 35.5 11H64V26H35V11.5Z" stroke="#D8D8D8"/>
<path d="M64 11H90.5C91.8807 11 93 12.1193 93 13.5V26H64V11Z" stroke="#D8D8D8"/>
</svg>
