<svg width="100" height="100" viewBox="0 0 100 100" fill="none" xmlns="http://www.w3.org/2000/svg">
<path d="M93 11H6V90H93V11Z" stroke="#D8D8D8"/>
<path d="M41.4688 69.5V68.1562C42.4271 67.9688 43.2292 67.7708 43.875 67.5625C44.5417 67.3542 45.0729 67.1562 45.4688 66.9688C45.8646 66.7604 46.1458 66.5729 46.3125 66.4062C46.5 66.2188 46.5938 66.0521 46.5938 65.9062V32.9375H37.25C36.9375 32.9375 36.6458 33 36.375 33.125C36.125 33.2292 35.8646 33.4688 35.5938 33.8438C35.3438 34.2188 35.0521 34.7708 34.7188 35.5C34.3854 36.2292 33.9896 37.1979 33.5312 38.4062L32.1875 37.8125C32.2917 36.5833 32.4271 35.2708 32.5938 33.875C32.7812 32.4792 32.9896 31.2292 33.2188 30.125H64.7812L65.7188 30.9062C65.6771 31.9688 65.5729 33.1354 65.4062 34.4062C65.2396 35.6562 65.0312 36.9375 64.7812 38.25H63.375C63.1667 37.2917 62.9792 36.4792 62.8125 35.8125C62.6667 35.125 62.4896 34.5729 62.2812 34.1562C62.0729 33.7188 61.8229 33.4062 61.5312 33.2188C61.2604 33.0312 60.9062 32.9375 60.4688 32.9375H51.5938V65.9062C51.5938 66.1771 51.9688 66.5208 52.7188 66.9375C53.4688 67.3542 54.8021 67.7604 56.7188 68.1562V69.5H41.4688Z" fill="#D8D8D8"/>
<path d="M2 85H11V94H2V85Z" fill="white" stroke="#D8D8D8"/>
<path d="M89 85H98V94H89V85Z" fill="white" stroke="#D8D8D8"/>
<path d="M89 6H98V15H89V6Z" fill="white" stroke="#D8D8D8"/>
<path d="M2 6H11V15H2V6Z" fill="white" stroke="#D8D8D8"/>
</svg>
