<svg width="610" height="128" viewBox="0 0 610 128" fill="none" xmlns="http://www.w3.org/2000/svg">
  <g transform="translate(0, 12)">
    <path d="M23.1635 71.0103L14.879 89.7773H0.000610352L36.5202 7.10105H51.3986L87.7491 89.7773H72.8707L64.5862 71.0103H23.1635ZM59.0068 57.9918L43.9594 24.0083L28.912 57.9918H59.0068ZM554.221 79.2413C559.706 79.2413 564.035 77.365 567.211 73.6124C570.482 69.8598 572.118 64.7602 572.118 58.3134V19.2H584.097V58.7464C584.097 68.7533 581.355 76.5471 575.87 82.1279C570.386 87.7086 563.169 90.499 554.221 90.499C545.273 90.499 538.056 87.7086 532.571 82.1279C527.087 76.5471 524.345 68.7533 524.345 58.7464V19.2H536.18V58.3134C536.18 64.8564 537.815 69.956 541.087 73.6124C544.262 77.365 548.64 79.2413 554.221 79.2413ZM597.267 19.2H609.246V89.7773H597.267V19.2Z" fill="#34A5F8"/>
    <path d="M153.924 26.8825V81.6619C153.924 92.4825 150.994 100.767 145.132 106.515C139.271 112.264 131.438 115.138 121.631 115.138C112.389 115.138 103.822 112.151 95.9324 106.177L102.188 96.2021C108.5 100.823 114.756 103.134 120.955 103.134C134.481 103.134 141.244 96.3712 141.244 82.8454V74.7299C139.328 78.4495 136.51 81.4365 132.79 83.6907C129.071 85.8323 124.956 86.9031 120.448 86.9031C112.107 86.9031 105.231 84.0289 99.8211 78.2804C94.5235 72.4193 91.8747 65.1492 91.8747 56.4701C91.8747 47.6784 94.5235 40.4083 99.8211 34.6598C105.231 28.7986 112.107 25.8681 120.448 25.8681C128.789 25.8681 135.552 29.3059 140.737 36.1815V26.8825H153.924ZM122.646 74.899C127.943 74.899 132.283 73.0956 135.664 69.4887C139.046 65.7691 140.737 61.2041 140.737 55.7938C140.737 50.2708 138.989 45.7059 135.495 42.099C132.114 38.3794 127.774 36.5196 122.477 36.5196C117.179 36.5196 112.896 38.4358 109.627 42.2681C106.471 45.9877 104.893 50.4962 104.893 55.7938C104.893 61.2041 106.528 65.7691 109.796 69.4887C113.065 73.0956 117.348 74.899 122.646 74.899ZM184.666 89.7773H171.479V26.8825H184.666V38.2103C186.808 34.378 189.739 31.3911 193.458 29.2495C197.291 26.9952 201.348 25.8681 205.631 25.8681C212.958 25.8681 218.763 28.066 223.046 32.4619C227.329 36.8578 229.471 43.1134 229.471 51.2289V89.7773H216.114V55.2866C216.114 43.677 211.323 37.8722 201.743 37.8722C196.896 37.8722 192.838 39.4502 189.57 42.6062C186.301 45.6495 184.666 49.989 184.666 55.6248V89.7773ZM275.145 78.9567C280.893 78.9567 285.627 77.0406 289.347 73.2083C293.179 69.376 295.095 64.4165 295.095 58.3299C295.095 52.2433 293.179 47.2839 289.347 43.4516C285.627 39.6193 280.893 37.7031 275.145 37.7031C269.396 37.7031 264.662 39.6193 260.943 43.4516C257.223 47.2839 255.363 52.2433 255.363 58.3299C255.363 64.4165 257.223 69.3196 260.943 73.0392C264.662 76.9842 269.396 78.9567 275.145 78.9567ZM275.145 90.7918C265.677 90.7918 257.787 87.6921 251.475 81.4928C245.163 75.1808 242.007 67.4598 242.007 58.3299C242.007 49.2 245.163 41.5354 251.475 35.3361C257.787 29.0241 265.677 25.8681 275.145 25.8681C284.613 25.8681 292.503 29.0241 298.815 35.3361C305.127 41.5354 308.283 49.2 308.283 58.3299C308.283 67.1217 305.127 74.7863 298.815 81.3237C292.503 87.6358 284.613 90.7918 275.145 90.7918ZM343.27 90.7918C333.125 90.7918 323.996 87.6358 315.88 81.3237L322.305 71.0103C329.519 76.5334 336.62 79.2949 343.608 79.2949C346.538 79.2949 348.849 78.6186 350.54 77.266C352.343 75.8007 353.245 73.9973 353.245 71.8557C353.245 68.6997 349.075 65.8818 340.734 63.4021C340.508 63.2894 340.226 63.1767 339.888 63.0639C339.663 62.9512 339.494 62.8949 339.381 62.8949C326.306 59.4007 319.769 53.4832 319.769 45.1423C319.769 39.2811 321.967 34.6035 326.363 31.1093C330.871 27.6151 336.789 25.8681 344.115 25.8681C351.329 25.8681 358.204 28.0096 364.742 32.2928L359.839 42.099C354.767 38.7175 349.187 37.0268 343.101 37.0268C336 37.0268 332.449 39.2811 332.449 43.7897C332.449 45.7059 333.125 47.1148 334.478 48.0165C335.943 48.8055 338.31 49.5945 341.579 50.3835C346.538 51.7361 350.709 53.0887 354.09 54.4413C356.345 55.4557 358.317 56.5265 360.008 57.6536C364.291 60.5842 366.433 65.0365 366.433 71.0103C366.433 76.8715 364.235 81.6619 359.839 85.3815C355.556 88.9883 350.033 90.7918 343.27 90.7918ZM396.118 37.534V69.4887C396.118 72.532 396.907 74.9554 398.485 76.7588C400.176 78.4495 402.43 79.2949 405.248 79.2949C407.84 79.2949 410.545 77.8859 413.363 75.0681L418.774 84.5361C414.04 88.7066 408.911 90.7918 403.388 90.7918C397.64 90.7918 392.793 88.8193 388.848 84.8743C384.903 80.8165 382.93 75.5753 382.93 69.1505V37.534H374.984V26.8825H382.93V7.10105H396.118V26.8825H412.687V37.534H396.118ZM440.923 89.7773H427.735V26.8825H440.923V89.7773ZM426.045 8.28456C426.045 6.03026 426.834 4.11411 428.412 2.53611C430.102 0.845382 432.131 1.97887e-05 434.498 1.97887e-05C436.752 1.97887e-05 438.669 0.845382 440.247 2.53611C441.937 4.11411 442.783 6.03026 442.783 8.28456C442.783 10.6516 441.937 12.6804 440.247 14.3712C438.669 15.9492 436.752 16.7382 434.498 16.7382C432.131 16.7382 430.159 15.8928 428.581 14.2021C426.89 12.6241 426.045 10.6516 426.045 8.28456ZM454.38 58.3299C454.38 48.8619 457.649 41.0846 464.186 34.998C470.724 28.9114 478.783 25.8681 488.364 25.8681C497.832 25.8681 505.834 29.1368 512.372 35.6742L504.595 45.3114C499.184 40.5773 493.718 38.2103 488.195 38.2103C482.559 38.2103 477.712 40.0701 473.654 43.7897C469.709 47.3966 467.737 52.0742 467.737 57.8227C467.737 63.6839 469.709 68.6433 473.654 72.7011C477.712 76.6461 482.672 78.6186 488.533 78.6186C494.394 78.6186 499.973 75.9698 505.271 70.6722L513.048 79.1258C505.045 86.9031 496.197 90.7918 486.504 90.7918C477.487 90.7918 469.878 87.8048 463.679 81.831C457.48 75.7444 454.38 67.9107 454.38 58.3299Z" fill="#E8F4FE"/>
  </g>
</svg>
