<?xml version="1.0" encoding="UTF-8" standalone="no"?>
<!DOCTYPE svg PUBLIC "-//W3C//DTD SVG 1.1//EN"
 "http://www.w3.org/Graphics/SVG/1.1/DTD/svg11.dtd">
<!-- Generated by graphviz version 2.47.3 (20210619.1520)
 -->
<!-- Title: dependencies Pages: 1 -->
<svg width="540pt" height="247pt"
 viewBox="0.00 0.00 540.00 246.80" xmlns="http://www.w3.org/2000/svg" xmlns:xlink="http://www.w3.org/1999/xlink">
<g id="graph0" class="graph" transform="scale(1 1) rotate(0) translate(4 242.8)">
<title>dependencies</title>
<polygon fill="white" stroke="transparent" points="-4,4 -4,-242.8 536,-242.8 536,4 -4,4"/>
<text text-anchor="middle" x="266" y="-8.2" font-family="sans-serif" font-size="14.00">dependencies</text>
<g id="clust1" class="cluster">
<title>cluster_HeaderModule</title>
<polygon fill="none" stroke="black" stroke-dasharray="1,5" points="8,-32.8 8,-230.8 524,-230.8 524,-32.8 8,-32.8"/>
</g>
<g id="clust7" class="cluster">
<title>cluster_HeaderModule_exports</title>
<polygon fill="none" stroke="black" points="16,-170.8 16,-222.8 516,-222.8 516,-170.8 16,-170.8"/>
</g>
<g id="clust2" class="cluster">
<title>cluster_HeaderModule_declarations</title>
<polygon fill="none" stroke="black" points="21,-40.8 21,-92.8 510,-92.8 510,-40.8 21,-40.8"/>
</g>
<!-- HeaderComponent -->
<g id="node1" class="node">
<title>HeaderComponent</title>
<polygon fill="#ffffb3" stroke="black" points="501.74,-84.8 380.26,-84.8 380.26,-48.8 501.74,-48.8 501.74,-84.8"/>
<text text-anchor="middle" x="441" y="-62.6" font-family="Times,serif" font-size="14.00">HeaderComponent</text>
</g>
<!-- HeaderModule -->
<g id="node4" class="node">
<title>HeaderModule</title>
<polygon fill="#8dd3c7" stroke="black" points="339.96,-149.8 336.96,-153.8 315.96,-153.8 312.96,-149.8 240.04,-149.8 240.04,-113.8 339.96,-113.8 339.96,-149.8"/>
<text text-anchor="middle" x="290" y="-127.6" font-family="Times,serif" font-size="14.00">HeaderModule</text>
</g>
<!-- HeaderComponent&#45;&gt;HeaderModule -->
<g id="edge1" class="edge">
<title>HeaderComponent&#45;&gt;HeaderModule</title>
<path fill="none" stroke="black" d="M462.04,-84.82C462.04,-102.17 462.04,-125.8 462.04,-125.8 462.04,-125.8 350.22,-125.8 350.22,-125.8"/>
<polygon fill="black" stroke="black" points="350.22,-122.3 340.22,-125.8 350.22,-129.3 350.22,-122.3"/>
</g>
<!-- HeaderNavComponent -->
<g id="node2" class="node">
<title>HeaderNavComponent</title>
<polygon fill="#ffffb3" stroke="black" points="362.56,-84.8 217.44,-84.8 217.44,-48.8 362.56,-48.8 362.56,-84.8"/>
<text text-anchor="middle" x="290" y="-62.6" font-family="Times,serif" font-size="14.00">HeaderNavComponent</text>
</g>
<!-- HeaderNavComponent&#45;&gt;HeaderModule -->
<g id="edge2" class="edge">
<title>HeaderNavComponent&#45;&gt;HeaderModule</title>
<path fill="none" stroke="black" d="M290,-84.91C290,-84.91 290,-103.79 290,-103.79"/>
<polygon fill="black" stroke="black" points="286.5,-103.79 290,-113.79 293.5,-103.79 286.5,-103.79"/>
</g>
<!-- HeaderNavItemComponent -->
<g id="node3" class="node">
<title>HeaderNavItemComponent</title>
<polygon fill="#ffffb3" stroke="black" points="199.22,-84.8 28.78,-84.8 28.78,-48.8 199.22,-48.8 199.22,-84.8"/>
<text text-anchor="middle" x="114" y="-62.6" font-family="Times,serif" font-size="14.00">HeaderNavItemComponent</text>
</g>
<!-- HeaderNavItemComponent&#45;&gt;HeaderModule -->
<g id="edge3" class="edge">
<title>HeaderNavItemComponent&#45;&gt;HeaderModule</title>
<path fill="none" stroke="black" d="M141.62,-84.82C141.62,-102.17 141.62,-125.8 141.62,-125.8 141.62,-125.8 229.77,-125.8 229.77,-125.8"/>
<polygon fill="black" stroke="black" points="229.77,-129.3 239.77,-125.8 229.77,-122.3 229.77,-129.3"/>
</g>
<!-- HeaderComponent  -->
<g id="node5" class="node">
<title>HeaderComponent </title>
<polygon fill="#fb8072" stroke="black" points="507.74,-214.8 382.26,-214.8 382.26,-178.8 507.74,-178.8 507.74,-214.8"/>
<text text-anchor="middle" x="445" y="-192.6" font-family="Times,serif" font-size="14.00">HeaderComponent </text>
</g>
<!-- HeaderModule&#45;&gt;HeaderComponent  -->
<g id="edge4" class="edge">
<title>HeaderModule&#45;&gt;HeaderComponent </title>
<path fill="none" stroke="black" stroke-dasharray="5,2" d="M339.98,-137.8C377.42,-137.8 422.21,-137.8 422.21,-137.8 422.21,-137.8 422.21,-168.78 422.21,-168.78"/>
<polygon fill="black" stroke="black" points="418.71,-168.78 422.21,-178.78 425.71,-168.78 418.71,-168.78"/>
</g>
<!-- HeaderNavComponent  -->
<g id="node6" class="node">
<title>HeaderNavComponent </title>
<polygon fill="#fb8072" stroke="black" points="364.07,-214.8 215.93,-214.8 215.93,-178.8 364.07,-178.8 364.07,-214.8"/>
<text text-anchor="middle" x="290" y="-192.6" font-family="Times,serif" font-size="14.00">HeaderNavComponent </text>
</g>
<!-- HeaderModule&#45;&gt;HeaderNavComponent  -->
<g id="edge5" class="edge">
<title>HeaderModule&#45;&gt;HeaderNavComponent </title>
<path fill="none" stroke="black" stroke-dasharray="5,2" d="M290,-149.91C290,-149.91 290,-168.79 290,-168.79"/>
<polygon fill="black" stroke="black" points="286.5,-168.79 290,-178.79 293.5,-168.79 286.5,-168.79"/>
</g>
<!-- HeaderNavItemComponent  -->
<g id="node7" class="node">
<title>HeaderNavItemComponent </title>
<polygon fill="#fb8072" stroke="black" points="198.22,-214.8 23.78,-214.8 23.78,-178.8 198.22,-178.8 198.22,-214.8"/>
<text text-anchor="middle" x="111" y="-192.6" font-family="Times,serif" font-size="14.00">HeaderNavItemComponent </text>
</g>
<!-- HeaderModule&#45;&gt;HeaderNavItemComponent  -->
<g id="edge6" class="edge">
<title>HeaderModule&#45;&gt;HeaderNavItemComponent </title>
<path fill="none" stroke="black" stroke-dasharray="5,2" d="M239.88,-137.8C179.23,-137.8 85.13,-137.8 85.13,-137.8 85.13,-137.8 85.13,-168.78 85.13,-168.78"/>
<polygon fill="black" stroke="black" points="81.63,-168.78 85.13,-178.78 88.63,-168.78 81.63,-168.78"/>
</g>
</g>
</svg>
