<?xml version="1.0" encoding="UTF-8" standalone="no"?>
<!DOCTYPE svg PUBLIC "-//W3C//DTD SVG 1.1//EN"
 "http://www.w3.org/Graphics/SVG/1.1/DTD/svg11.dtd">
<!-- Generated by graphviz version 2.47.3 (20210619.1520)
 -->
<!-- Title: dependencies Pages: 1 -->
<svg width="162pt" height="247pt"
 viewBox="0.00 0.00 162.00 246.80" xmlns="http://www.w3.org/2000/svg" xmlns:xlink="http://www.w3.org/1999/xlink">
<g id="graph0" class="graph" transform="scale(1 1) rotate(0) translate(4 242.8)">
<title>dependencies</title>
<polygon fill="white" stroke="transparent" points="-4,4 -4,-242.8 158,-242.8 158,4 -4,4"/>
<text text-anchor="middle" x="77" y="-8.2" font-family="sans-serif" font-size="14.00">dependencies</text>
<g id="clust1" class="cluster">
<title>cluster_TabModule</title>
<polygon fill="none" stroke="black" stroke-dasharray="1,5" points="8,-32.8 8,-230.8 146,-230.8 146,-32.8 8,-32.8"/>
</g>
<g id="clust5" class="cluster">
<title>cluster_TabModule_exports</title>
<polygon fill="none" stroke="black" points="16,-170.8 16,-222.8 138,-222.8 138,-170.8 16,-170.8"/>
</g>
<g id="clust2" class="cluster">
<title>cluster_TabModule_declarations</title>
<polygon fill="none" stroke="black" points="17,-40.8 17,-92.8 137,-92.8 137,-40.8 17,-40.8"/>
</g>
<!-- TabComponent -->
<g id="node1" class="node">
<title>TabComponent</title>
<polygon fill="#ffffb3" stroke="black" points="128.6,-84.8 25.4,-84.8 25.4,-48.8 128.6,-48.8 128.6,-84.8"/>
<text text-anchor="middle" x="77" y="-62.6" font-family="Times,serif" font-size="14.00">TabComponent</text>
</g>
<!-- TabModule -->
<g id="node2" class="node">
<title>TabModule</title>
<polygon fill="#8dd3c7" stroke="black" points="117.82,-149.8 114.82,-153.8 93.82,-153.8 90.82,-149.8 36.18,-149.8 36.18,-113.8 117.82,-113.8 117.82,-149.8"/>
<text text-anchor="middle" x="77" y="-127.6" font-family="Times,serif" font-size="14.00">TabModule</text>
</g>
<!-- TabComponent&#45;&gt;TabModule -->
<g id="edge1" class="edge">
<title>TabComponent&#45;&gt;TabModule</title>
<path fill="none" stroke="black" d="M77,-84.91C77,-84.91 77,-103.79 77,-103.79"/>
<polygon fill="black" stroke="black" points="73.5,-103.79 77,-113.79 80.5,-103.79 73.5,-103.79"/>
</g>
<!-- TabComponent  -->
<g id="node3" class="node">
<title>TabComponent </title>
<polygon fill="#fb8072" stroke="black" points="130.1,-214.8 23.9,-214.8 23.9,-178.8 130.1,-178.8 130.1,-214.8"/>
<text text-anchor="middle" x="77" y="-192.6" font-family="Times,serif" font-size="14.00">TabComponent </text>
</g>
<!-- TabModule&#45;&gt;TabComponent  -->
<g id="edge2" class="edge">
<title>TabModule&#45;&gt;TabComponent </title>
<path fill="none" stroke="black" stroke-dasharray="5,2" d="M77,-149.91C77,-149.91 77,-168.79 77,-168.79"/>
<polygon fill="black" stroke="black" points="73.5,-168.79 77,-178.79 80.5,-168.79 73.5,-168.79"/>
</g>
</g>
</svg>
